# xmcd
#
# Track frame offsets:
#	150
#	9587
#	17537
#	29512
#	40187
#	54525
#	68412
#	79587
#	96537
#	107745
#
# Disc length: 1574 seconds
# Revision: 0
# Processed by: cddbd v1.5.2PL0 Copyright (c) Steve Scherf et al.
# Submitted via: dBpowerAMP V12.0
#
DISCID=7406240a
DTITLE=Various Artist - A Country Christmas Collection - [Disc 2]
DYEAR=2001
DGENRE=Country
TTITLE0=Hank Snow - Frosty the Snowman
TTITLE1=Chet Atkins and His Gallopin' Guitar - The First Noel
TTITLE2=Skeeter Davis - Santa Claus Is Comin' To Town
TTITLE3=Danny Davis and the Nashville Brass - Silver Bells
TTITLE4=Jim Ed Brown and Helen Cornelius - Fall Softly Snow
TTITLE5=Earl Thomas Conley - Blue Christmas
TTITLE6=Leon Everette - Everytime I Hear Blue Christmas (I Get the Christmas Blues)
TTITLE7=Louise Mandrell and R. C. Bannon - Christmas Is Just A Song for Us This Year
TTITLE8=Willie Nelson - Pretty Paper
TTITLE9=Waylon Jennings and Jessi Colter - Silent Night, Holy Night
EXTD=
EXTT0=
EXTT1=
EXTT2=
EXTT3=
EXTT4=
EXTT5=
EXTT6=
EXTT7=
EXTT8=
EXTT9=
PLAYORDER=
